<svg version="1.1" id="Camada_1" xmlns="http://www.w3.org/2000/svg" x="0" y="0" viewBox="0 0 3000 1651.9" style="enable-background:new 0 0 3000 1651.9" xml:space="preserve"><style>.st0,.st1,.st12,.st13,.st7{opacity:.962;fill-rule:evenodd;clip-rule:evenodd;fill:#002a8b;enable-background:new}.st1,.st12,.st13,.st7{opacity:.979}.st12,.st13,.st7{opacity:.968}.st12,.st13{opacity:.98}.st13{opacity:.978}</style><path class="st0" d="M739.6.1c42.9-.6 85.6 1.4 128.3 5.8 25.9 2.2 50.4 9.4 73.3 21.7 21.5 13.8 34 33.5 37.5 59.1 2.1 12.7 3.2 25.5 3.3 38.3-6.7-14.3-16.5-26.2-29.2-35.8-32-20.5-67-32.7-104.9-36.6-56.7-7.8-113.3-7.3-169.9 1.7-34.7 4.7-66.3 16.9-94.9 36.6-11.8 9-20.4 20.4-25.8 34.1-1-26.5 4.5-51.4 16.7-75 17.7-20.9 40.2-34 67.5-39.1C674.1 5 706.8 1.4 739.6.1z"/><path class="st1" d="M191.6 143.3c49.3-.2 95.9 10.7 139.9 32.5-15.3.3-30.5 0-45.8-.8-123.3.1-171.6 60.6-144.9 181.6 18.2 74.1 42 146.3 71.6 216.5 55.5 131.6 118.5 259.3 189.1 383.1-.6.5-1.1 1.1-1.7 1.7-29.4-14.6-55.2-34.1-77.5-58.3-85.9-114.6-163.1-235-231.5-361.5-20.2-38.8-39.1-78.2-56.6-118.3C16.5 380.5 5.1 339.4 0 296.6c3.1-79.4 43.6-126.9 121.6-142.4 23.4-4.9 46.7-8.5 70-10.9z"/><path d="M1137.7 191.7c-19.9-6.6-39.9-12.2-60-16.7 98.5-30.9 199-39 301.5-24.2 128.5 18.9 173.7 90.9 135.8 215.7-20.2 56.8-44.7 111.7-73.3 164.9-66.2 118.6-137.8 233.6-214.9 344.9-68 98.8-138.3 196-210.7 291.5-3.3-1.3-4.7-3.5-4.2-6.7 76.5-130.3 149.3-263 218.2-398.1 50.4-101.3 94.8-205.2 133.3-311.5 15.8-44.4 26.9-89.9 33.3-136.6 8.4-72.9-22.9-117.1-94.1-132.4-35.5-5.3-71.1-5.3-106.6 0-19.5 2.7-38.9 5.7-58.3 9.2z" style="opacity:.976;fill-rule:evenodd;clip-rule:evenodd;fill:#002b8a;enable-background:new"/><path d="M1077.7 175c20.1 4.5 40.1 10 60 16.7 35.1 14.8 64.8 37 89.1 66.6 19.1 27.5 28.2 58 27.5 91.6-3.6 62.2-13.9 123.3-30.8 183.2-50.2 187.6-126.3 363.6-228.2 528-11.9 19.5-24.7 38.3-38.3 56.6-13.1-10.3-25.6-21.2-37.5-32.5 62.4-164.8 109.3-333.8 140.8-507.2 13.6-74.1 21.1-148.8 22.5-224 .4-24.3-1-48.4-4.2-72.5-2.9-25.9-13.8-47.5-32.5-65-10.7-12.6-24-20.9-40-25-103.9-28.7-182 4-234 98.3-38.3 54-90.8 83.7-157.4 89.1-14.4 1.5-28.8 2.4-43.3 2.5.6-51.1 1.7-102.2 3.3-153.2 23 16.5 47.4 30.7 73.3 42.5 9.2 3.5 18.7 6.2 28.3 8.3 13.7 2.6 26.4.3 38.3-6.7 8.1-8.1 11.1-17.8 9.2-29.2-4.7-20.5-13-39.4-25-56.6-8.3-11.9-16.9-23.6-25.8-35 108.5-4.7 216.8-1 324.8 10.8 26.9 3.1 53.5 7.2 79.9 12.7z" style="opacity:.984;fill-rule:evenodd;clip-rule:evenodd;fill:#feba00;enable-background:new"/><path d="M583 155c2.3-.3 4.5 0 6.7.8-72 17.6-117.9 62.3-137.4 134.1-4.9 23.6-6.8 47.5-5.8 71.6 8.4 190 40.3 376 95.8 558 9.6 30 19.9 59.7 30.8 89.1-50.2-.8-88.7-22.2-115.8-64.1C377.9 789.2 320.7 626 285.7 454.8c-10-45.7-12.7-91.8-8.3-138.3 13.1-44.8 39.5-79.5 79.1-104.1 42-23.8 87-39.4 134.9-46.6 30.7-3.9 61.3-7.5 91.6-10.8z" style="opacity:.986;fill-rule:evenodd;clip-rule:evenodd;fill:#00a53d;enable-background:new"/><path d="M1006.1 191.7c16 4.1 29.3 12.4 40 25-48.8 23-81.3 60.2-97.4 111.6-6.2 27.5-4.3 54.4 5.8 80.8-.6.8-1.1 1.7-1.7 2.5-29.6-17.8-60.7-32.6-93.3-44.1-51.1-16-69.7 1.5-55.8 52.5 13.1 26.2 29.5 50.1 49.1 71.6-55.5 1.7-111 2.2-166.6 1.7 32.9-109.8 98.9-193.3 198.2-250.7 39.3-20.9 79.8-37.8 121.7-50.9z" style="opacity:.975;fill-rule:evenodd;clip-rule:evenodd;fill:#00a53d;enable-background:new"/><path class="st0" d="M1455.9 891.3c15.6-.3 31.1 0 46.6.8 49.6 10.4 70.7 40.4 63.3 89.9-13.9 1.1-27.8 1.1-41.6 0-1.9-12.9-5.5-25.4-10.8-37.5-9.9-9.5-21.9-14-35.8-13.3-28.8.1-44.6 14.6-47.5 43.3-1.1 35-1.1 70 0 104.9 4.5 36 24.8 50.7 60.8 44.1 10.9-2.6 19.5-8.4 25.8-17.5 3.3-10.7 5.8-21.5 7.5-32.5 12.1-2.6 24.3-3.1 36.6-1.7 3.2.3 5.7 1.7 7.5 4.2 2.7 52.3-22 82-74.1 89.1-31.3 5.2-59.6-1.4-85-20-14.6-13.9-23.8-30.8-27.5-50.8-3.3-41.1-3.3-82.2 0-123.3 5.5-44.7 30.2-71.4 74.2-79.7z"/><path d="M2345.4 894.6c11.7-.3 23.3 0 35 .8 3.7 1.1 5.6 3.6 5.8 7.5 1.1 83.8 1.1 167.7 0 251.5-.4 3-1.8 5.5-4.2 7.5-10.5 1.1-21.1 1.1-31.6 0-3.5-1.3-5.7-3.8-6.7-7.5-33.2 14.6-65.4 12.6-96.6-5.8-24.7-22.8-34.7-51.1-30-85-2-25.3 2.1-49.5 12.5-72.5 9.2-14.7 22.3-24.5 39.1-29.2 18.5-3.7 36.8-3.2 55 1.7 5.7 2.4 11 5.5 15.8 9.2.5-24.4 1.1-48.9 1.7-73.3 1.2-1.9 2.5-3.6 4.2-4.9zm-51.7 103.3c28.9-2.1 44.7 11.2 47.5 40 1.4 19.5.9 38.9-1.7 58.3-7.5 23.1-23.3 32.2-47.5 27.5-16.5-5.4-25.7-16.8-27.5-34.1-1.5-21.8-1-43.4 1.7-65 4.7-13.9 13.8-22.8 27.5-26.7z" style="opacity:.961;fill-rule:evenodd;clip-rule:evenodd;fill:#002a8b;enable-background:new"/><path class="st7" d="M2483.6 959.6c24.1-2.6 46.8 1.5 68.3 12.5 15 10.5 24.7 24.7 29.2 42.5 2.6 27.1 3.2 54.3 1.7 81.6-4.6 32.8-22.7 54.2-54.1 64.1-24.9 4.6-49.4 2.9-73.3-5-20-10-32.4-25.8-37.5-47.5-2.6-26.6-3.2-53.2-1.7-80 6.1-39.1 28.6-61.9 67.4-68.2zm8.3 38.3c28.4-1.8 43.7 11.5 45.8 40 1.4 19.5.9 38.9-1.7 58.3-7.5 23.1-23.3 32.2-47.5 27.5-13.7-4.3-22.3-13.4-25.8-27.5-3.8-25.1-3.2-50.1 1.7-75 5-13 14.2-20.8 27.5-23.3z"/><path d="M1655.7 961.2c24.7-2.8 48 1.3 70 12.5 15 10.5 24.7 24.7 29.2 42.5 2.6 27.1 3.2 54.3 1.7 81.6-4.6 32.9-22.7 54.3-54.1 64.1-24.9 4.6-49.4 2.9-73.3-5-20-10-32.4-25.8-37.5-47.5-2.6-27.1-3.2-54.3-1.7-81.6 6.6-37.4 28.6-59.7 65.7-66.6zm10 38.3c28.4-1.8 43.7 11.5 45.8 40 1.4 19.5.9 38.9-1.7 58.3-7.6 23.1-23.4 32.2-47.5 27.5-13.7-4.3-22.3-13.4-25.8-27.5-3.8-25.1-3.2-50.1 1.7-75 5-13 14.2-20.7 27.5-23.3z" style="opacity:.967;fill-rule:evenodd;clip-rule:evenodd;fill:#002a8b;enable-background:new"/><path d="M1850.6 961.2c23.9-2.7 46.6.9 68.3 10.8 18.6 11.9 29.4 28.8 32.5 50.8 1.5 26.7.9 53.4-1.7 80-9.8 37.8-34.5 56.7-74.1 56.6-16.9-.3-32.2-5.3-45.8-15-.5 25-1.1 50-1.7 75l-2.5 2.5c-12.8 1.1-25.5 1.1-38.3 0-1.2-2.3-2-4.8-2.5-7.5-1.1-81.1-1.1-162.1 0-243.2.4-2.7 1.3-5.2 2.5-7.5 12.8-1.1 25.5-1.1 38.3 0 1.4 1.7 3.1 3.1 5 4.2 6.8-2.6 13.5-4.9 20-6.7zm8.4 38.3c12.5-1.4 24.2 1.1 35 7.5 5.6 5.9 9.2 12.8 10.8 20.8 3.7 22.9 3.1 45.6-1.7 68.3-9.5 20.2-25.4 27.7-47.5 22.5-15.4-6-24-17.4-25.8-34.1-1.5-20.6-1-41.2 1.7-61.6 4.9-13.1 14.1-20.8 27.5-23.4z" style="opacity:.965;fill-rule:evenodd;clip-rule:evenodd;fill:#002a8b;enable-background:new"/><path class="st7" d="M2032.2 961.2c16.7-.3 33.3 0 50 .8 27.4 3.5 43.2 18.8 47.5 45.8 1.1 51.1 1.1 102.2 0 153.2-1.2 1-2.6 1.9-4.2 2.5-10 1.1-20 1.1-30 0-3.4-1.5-5.9-4-7.5-7.5-8.6 4.4-17.7 6.9-27.5 7.5-23.4 2.4-45.6-1.5-66.6-11.7-15.3-13-22.5-29.7-21.7-50 .8-38.2 20.2-59.3 58.3-63.3 19.5-1.1 38.9-.8 58.3.8 2.1-38.1-15.1-51.7-51.6-40.8-5.6 5.8-10.6 11.9-15 18.3-12.2 1.1-24.4 1.1-36.6 0-1.5-.6-2.9-1.4-4.2-2.5-1.8-20.1 6.3-34.8 24.2-44.1 8.7-3.9 17.6-7 26.6-9zm13.3 111.6c13.4.5 26.7 1.6 40 3.3 3.4 15.7 1.4 30.7-5.8 45-4.5 4.1-9.8 6.6-15.8 7.5-13.3 2.1-26.1.5-38.3-5-11.2-12-12.6-25-4.2-39.1 6.7-7 14.8-10.8 24.1-11.7z"/><path d="M368.1 966.2c70 47.2 147.2 75.8 231.5 85.8 41.6 4.2 83.2 7.6 124.9 10 87.6 4.1 163.6 35.2 228.2 93.3 42.9 42.3 80.1 89 111.6 139.9-1.1 1.1-2.2 1.1-3.3 0-49.5-51.6-109.5-85-179.9-99.9-16-3.3-32.1-6.1-48.3-8.3-55.6-4.6-111.1-9.6-166.6-15-48.5-9.9-93.5-28.2-134.9-55-61.6-42.3-116-92.5-163.2-150.8z" style="opacity:.975;fill-rule:evenodd;clip-rule:evenodd;fill:#febb00;enable-background:new"/><path d="M493.1 1137.8c.7-1.7 1.8-2 3.3-.8 36.4 29 76.9 50.7 121.6 65 21.9 6.1 44.1 10.6 66.6 13.3 39.9 4.2 79.9 6.9 119.9 8.3 89.2 5.7 167.5 37.3 234.9 94.9 40.7 37.4 75.2 79.6 103.3 126.6-1.1 1.1-2.2 1.1-3.3 0-53.9-64.2-122.8-101.4-206.6-111.6-44.9-4.2-89.9-7.5-134.9-10-100.8-5.3-184.4-45.5-250.7-120.8-17.3-22.3-35.3-44-54.1-64.9z" style="opacity:.972;fill-rule:evenodd;clip-rule:evenodd;fill:#00a53d;enable-background:new"/><path class="st12" d="M569.7 1264.4c1.8-.2 3.4 0 5 .8 11.7 12.8 23.3 25.5 35 38.3-36.8 40.5-67.6 85.2-92.4 134.1-11.7 24.3-16.2 49.8-13.3 76.6 3.6 15.4 10.2 29.3 20 41.6 23.8 25.7 51.8 45.4 84.1 59.1 38.2 15.5 77.6 26.6 118.3 33.3-70 4-140 2.9-209.9-3.3-45.2-3.2-88.5-13.8-129.9-31.6-22.3-10-35.9-27-40.8-50.8-3.3-28 1.1-54.6 13.3-80 14.3-31.5 33.2-59.8 56.6-85 47.2-49.6 98.5-94.1 154-133.1z"/><path class="st1" d="M2430.3 1266.1c38.8-3.5 74.9 4.5 108.3 24.2 29.2 22 41.7 51.2 37.5 87.5-2.2 3.3-5.2 5.2-9.2 5.8-20.5 1.1-41.1 1.1-61.6 0-3.9-.6-7-2.5-9.2-5.8-8.6-33.6-30-46.6-64.1-39.1-10.5 2-18 7.9-22.5 17.5-7.8 28.6 2.5 47.2 30.8 55.8 24.4 7.8 48.9 15.5 73.3 23.3 58.2 23.9 80.7 66.9 67.5 129.1-9.3 39.3-33.5 64.6-72.5 75.8-9.8 3.1-19.8 5.3-30 6.7-20.5 1.1-41.1 1.1-61.6 0-24.4-2.7-46.6-11.1-66.6-25-28.1-24.3-38.1-54.3-30-89.9 4.2-1.8 8.7-2.9 13.3-3.3 16.1-1.1 32.2-1.1 48.3 0 4.6.4 9.1 1.5 13.3 3.3 4.4 10.3 9.1 20.6 14.2 30.8 6.4 7.5 14.4 12.2 24.2 14.2 13.4 1.4 26.8.9 40-1.7 19.7-8.6 26.7-23.4 20.8-44.1-6.2-14.4-17.1-23.6-32.5-27.5-32.1-8.5-63.2-19.6-93.3-33.3-40.6-27.2-56.5-65.2-47.5-114.1 8.5-44.6 34.9-72.7 79.1-84.1 10.2-2.5 20.2-4.4 30-6.1z"/><path class="st12" d="M2103.8 1274.4c25-.3 50 0 75 .8 4.2.9 7.8 2.8 10.8 5.8 39.9 114.4 77.9 229.3 114.1 344.8.4 6.7-2.4 11.4-8.3 14.2-22.2 1.1-44.4 1.1-66.6 0-5.4-3.2-9-8-10.8-14.2-6.2-20.1-12.6-40-19.2-60-40.5-1.7-81.1-2.2-121.6-1.7-5.3 20.7-11.1 41.2-17.5 61.6-1.9 4.6-4.4 8.7-7.5 12.5-22.1 2.7-44.3 3.2-66.6 1.7-6.6-2-9.3-6.5-8.3-13.3 36.9-115.7 75.5-231 115.8-345.6 3.2-2.9 6.9-5.1 10.7-6.6zm33.3 89.9c14.2 43.9 28.1 88 41.6 132.4-26.7.8-53.3 1.1-80 .8 12.9-44.3 25.7-88.7 38.4-133.2z"/><path class="st13" d="M2788.4 1274.4c21.2-.7 42.3.1 63.3 2.5 2.6 2 4.5 4.5 5.8 7.5.8 93.3 1.1 186.6.8 279.8 43.9-.3 87.7 0 131.6.8 5.5 1.3 8.6 4.9 9.2 10.8 1.1 18.9 1.1 37.8 0 56.6-1.5 4.3-4.6 6.8-9.2 7.5-68.3 1.1-136.6 1.1-204.9 0-3.9-.6-7-2.5-9.2-5.8-2.7-115.4-3.3-230.9-1.7-346.5 1.6-8.2 6.3-12.7 14.3-13.2z"/><path d="M1395.9 1276.1c54.5-.7 108.9.1 163.2 2.5 28.1 2.8 50.6 15.3 67.5 37.5 5.9 9.8 9.8 20.4 11.7 31.6 1.9 20.2.8 40.2-3.3 60-7.3 19.5-20.3 33.7-39.1 42.5 27.6 10.4 44.5 30.1 50.8 59.1 6.4 33.9.9 65.6-16.7 94.9-15.9 17.5-35.6 28.4-59.1 32.5-14.8 3-29.8 4.6-45 5-41.1 1.1-82.2 1.1-123.3 0-7.7.9-13-2.1-15.8-9.2-1.1-116.1-1.1-232.1 0-348.1 1.8-4.4 4.8-7.1 9.1-8.3zm73.3 71.6c18.9-.3 37.8 0 56.6.8 19.6 3.5 28.5 15.1 26.7 35 1.3 20.7-8.1 32.9-28.3 36.6-18.3.8-36.6 1.1-55 .8v-73.2zm0 139.9c21.1-.3 42.2 0 63.3.8 19.8 4 29.8 16.2 30 36.6 1.3 25.2-10.3 39.6-35 43.3-19.4.8-38.9 1.1-58.3.8v-81.5z" style="opacity:.986;fill-rule:evenodd;clip-rule:evenodd;fill:#002a8b;enable-background:new"/><path d="M1697.4 1276.1c53.9-.3 107.7 0 161.6.8 44.3 2.8 72.9 25.3 85.8 67.5 5.5 32.2 5.5 64.4 0 96.6-7.5 27.5-23.9 47.7-49.1 60.8 22.7 40.1 45.2 80.4 67.5 120.8 1.7 5.8.8 11.1-2.5 15.8-13.2 1.9-26.5 2.7-40 2.5-13.5.2-26.8-.6-40-2.5-4.2-3.7-7.8-7.8-10.8-12.5-17.8-36.6-35.5-73.3-53.3-109.9-14-1.6-28.2-2.2-42.5-1.7.8 40.1-.1 80-2.5 119.9-2 2.6-4.5 4.5-7.5 5.8-21.7 1.1-43.3 1.1-65 0-5.5-1.3-8.6-4.9-9.2-10.8-1.1-113.8-1.1-227.7 0-341.5.9-5.1 3.4-9 7.5-11.6zm74.9 71.6c18.9-.3 37.8 0 56.6.8 25.7 4.6 37.3 20.2 35 46.6 1.7 26.7-10.5 42.3-36.6 46.6-18.3.8-36.6 1.1-55 .8v-94.8z" style="opacity:.984;fill-rule:evenodd;clip-rule:evenodd;fill:#002a8b;enable-background:new"/><path d="M2636.9 1276.1c22.8-.3 45.5 0 68.3.8 4.3 2.2 6.8 5.8 7.5 10.8 1.1 113.8 1.1 227.7 0 341.5-.6 5.9-3.6 9.5-9.2 10.8-22.2 1.1-44.4 1.1-66.6 0-4.3-1.5-6.8-4.6-7.5-9.2-1.1-114.9-1.1-229.9 0-344.8 1-4.5 3.5-7.9 7.5-9.9z" style="opacity:.983;fill-rule:evenodd;clip-rule:evenodd;fill:#002a8b;enable-background:new"/><path class="st13" d="M1024.4 1406c60.7 19.1 109.3 54.6 145.8 106.6 23.5 39.1 16.5 71.6-20.8 97.4-33.7 16.7-69.2 27.3-106.6 31.6-75.8 9.7-151.9 12.5-228.2 8.3-2.2-1.1-2.2-2.2 0-3.3 57.6-9.8 110.9-30.3 159.9-61.6 40-28.2 58.4-66.8 55-115.8-.2-21.2-1.9-42.2-5.1-63.2z"/></svg>