<?xml version="1.0" encoding="UTF-8"?><svg id="Camada_2" xmlns="http://www.w3.org/2000/svg" viewBox="0 0 274.52 314.89"><defs><style>.cls-1{fill-rule:evenodd;}.cls-1,.cls-2{fill:#000000;stroke-width:0px;}</style></defs><g id="Camada_1-2"><path class="cls-2" d="M210.74,20.99c-16.75,0-31.99,6.47-43.37,17.03C154.65,15.34,130.39,0,102.54,0,61.52,0,28.26,33.26,28.26,74.28s33.26,74.28,74.28,74.28c22.7,0,43.01-10.2,56.64-26.24,11.6,15.9,30.37,26.24,51.56,26.24,35.23,0,63.79-28.56,63.79-63.79s-28.56-63.79-63.79-63.79ZM102.54,118.69c-24.53,0-44.41-19.88-44.41-44.41s19.88-44.41,44.41-44.41,44.41,19.88,44.41,44.41-19.88,44.41-44.41,44.41ZM210.74,118.69c-18.73,0-33.91-15.18-33.91-33.91s15.18-33.91,33.91-33.91,33.91,15.18,33.91,33.91-15.18,33.91-33.91,33.91Z"/><path class="cls-1" d="M219.62,161.48h-80.74c-24.49,0-45.22,16.03-52.3,38.17l-47.9-24.25c-3.73-1.89-7.85-2.87-12.03-2.87-14.72,0-26.64,11.93-26.64,26.64v78.2c0,4.15.97,8.23,2.82,11.94,6.59,13.16,22.6,18.47,35.76,11.88l48.12-24.12c7.19,21.95,27.82,37.81,52.17,37.81h80.74c30.32,0,54.9-24.58,54.9-54.9v-43.6c0-30.32-24.58-54.9-54.9-54.9ZM38.7,269.6c-3.55,1.73-7.85.3-9.65-3.23-.52-1.02-.79-2.15-.79-3.3v-49.16c.07-3.95,3.3-7.13,7.27-7.13,1.13,0,2.25.26,3.26.77l45.18,22.69v16.28l-45.14,23.02-.12.06ZM246.26,259.18v.45c-.25,14.95-12.44,27-27.45,27h-79.58c-14.95-.25-27-12.44-27-27.45v-42.44c.25-14.95,12.44-27,27.45-27h79.58c14.95.25,27,12.44,27,27.45v41.99Z"/></g></svg>